<svg width="16" height="17" viewBox="0 0 16 17" fill="none" xmlns="http://www.w3.org/2000/svg">
<path fill-rule="evenodd" clip-rule="evenodd" d="M11.9518 2.02007C10.7451 1.29803 9.4289 0.937012 7.99939 0.937012C6.5711 0.937012 5.25365 1.29803 4.04645 2.02007C2.84107 2.74148 1.88523 3.72076 1.18138 4.95728C0.476315 6.19506 0.125 7.54481 0.125 9.00963C0.125 10.7682 0.625929 12.3494 1.62719 13.7544C2.62845 15.1571 3.92167 16.1319 5.50806 16.6696C5.6922 16.7048 5.82909 16.6803 5.91752 16.596C6.00657 16.5112 6.05078 16.4074 6.05078 16.2816L6.04594 15.7124C6.04231 15.3552 6.03988 15.0438 6.03988 14.7771L5.80487 14.8187C5.65464 14.847 5.46444 14.8589 5.23548 14.8551C5.00713 14.852 4.76908 14.8274 4.52315 14.7815C4.27905 14.7363 4.05069 14.6319 3.83868 14.4671C3.62669 14.3023 3.47646 14.0865 3.38742 13.8206L3.28445 13.5778C3.21661 13.4167 3.10879 13.2381 2.9622 13.0431C2.81501 12.8456 2.66661 12.7123 2.51639 12.6425L2.4437 12.5903C2.39647 12.555 2.35285 12.5135 2.31045 12.4645C2.26987 12.4154 2.23957 12.3664 2.21959 12.3173C2.19899 12.2669 2.21535 12.2273 2.26987 12.1959C2.32437 12.1632 2.42371 12.1487 2.56667 12.1487L2.77261 12.1802C2.9083 12.2079 3.0779 12.2921 3.2796 12.4317C3.48131 12.5727 3.64727 12.7544 3.7763 12.9789C3.93379 13.2658 4.12337 13.4846 4.34567 13.6356C4.56797 13.7866 4.7921 13.862 5.01803 13.862C5.24214 13.862 5.43779 13.8432 5.60194 13.8092C5.76549 13.774 5.91995 13.7211 6.06229 13.6519C6.12529 13.1814 6.29246 12.8204 6.56504 12.5682C6.17617 12.5255 5.82606 12.4626 5.51533 12.3783C5.20398 12.2946 4.88295 12.1581 4.55222 11.9682C4.21908 11.7796 3.94469 11.5456 3.72602 11.2638C3.50797 10.9858 3.32807 10.616 3.18875 10.1631C3.04943 9.70588 2.97856 9.18197 2.97856 8.58572C2.97856 7.73852 3.2475 7.01648 3.78781 6.42023C3.53462 5.78247 3.55763 5.06798 3.86049 4.2755C4.05735 4.2126 4.35113 4.25977 4.74121 4.41701C5.13069 4.57425 5.41538 4.70948 5.59649 4.8208C5.7782 4.93402 5.92359 5.02836 6.03261 5.10509C6.66681 4.92647 7.3222 4.83653 7.99939 4.83653C8.6766 4.83653 9.33199 4.92773 9.968 5.1095L10.3574 4.85665C10.624 4.68872 10.9389 4.53589 11.3012 4.39438C11.6646 4.25474 11.942 4.21638 12.1335 4.27928C12.4406 5.07175 12.4684 5.78562 12.2153 6.424C12.7544 7.019 13.0245 7.74104 13.0245 8.58886C13.0245 9.18386 12.9542 9.71156 12.8143 10.1707C12.6749 10.6298 12.4933 10.9996 12.2704 11.2758C12.0487 11.5524 11.7725 11.7852 11.4405 11.9751C11.1092 12.1639 10.7863 12.3003 10.4774 12.3839C10.1661 12.4683 9.81717 12.5312 9.42587 12.5727C9.78143 12.8871 9.95891 13.3841 9.95891 14.0651V16.2835C9.95891 16.4093 10.0013 16.5137 10.0873 16.598C10.1721 16.6817 10.3071 16.7067 10.492 16.6715C12.0789 16.1306 13.3715 15.1595 14.3728 13.7532C15.374 12.3506 15.875 10.7676 15.875 9.00963C15.875 7.54543 15.5224 6.19506 14.8186 4.95791C14.1142 3.72139 13.1589 2.74211 11.9536 2.02069L11.9518 2.02007Z" fill="#919191"/>
</svg>
