<svg width="18" height="19" viewBox="0 0 18 19" fill="none" xmlns="http://www.w3.org/2000/svg">
<path d="M4.44532 11.894C4.44532 12.8095 3.70606 13.5493 2.79138 13.5493C1.87671 13.5493 1.13745 12.8095 1.13745 11.894C1.13745 10.9786 1.87671 10.2388 2.79138 10.2388H4.44532V11.894ZM5.27229 11.894C5.27229 10.9786 6.01156 10.2388 6.92623 10.2388C7.84091 10.2388 8.58017 10.9786 8.58017 11.894V16.0321C8.58017 16.9475 7.84091 17.6875 6.92623 17.6875C6.01156 17.6875 5.27229 16.9475 5.27229 16.0321V11.894Z" fill="#919191"/>
<path d="M6.92631 5.24752C6.01164 5.24752 5.27237 4.50768 5.27237 3.59226C5.27237 2.67686 6.01164 1.93701 6.92631 1.93701C7.84099 1.93701 8.58025 2.67686 8.58025 3.59226V5.24752H6.92631ZM6.92631 6.08769C7.84099 6.08769 8.58025 6.82754 8.58025 7.74294C8.58025 8.65835 7.84099 9.3982 6.92631 9.3982H2.77894C1.86426 9.3982 1.125 8.65835 1.125 7.74294C1.125 6.82754 1.86426 6.08769 2.77894 6.08769H6.92631Z" fill="#919191"/>
<path d="M13.5545 7.74294C13.5545 6.82754 14.2937 6.08769 15.2085 6.08769C16.1231 6.08769 16.8624 6.82754 16.8624 7.74294C16.8624 8.65835 16.1231 9.3982 15.2085 9.3982H13.5545V7.74294ZM12.7275 7.74294C12.7275 8.65835 11.9883 9.3982 11.0736 9.3982C10.1589 9.3982 9.41968 8.65835 9.41968 7.74294V3.59226C9.41968 2.67686 10.1589 1.93701 11.0736 1.93701C11.9883 1.93701 12.7275 2.67686 12.7275 3.59226V7.74294Z" fill="#919191"/>
<path d="M11.0736 14.3769C11.9883 14.3769 12.7275 15.1167 12.7275 16.0321C12.7275 16.9475 11.9883 17.6875 11.0736 17.6875C10.1589 17.6875 9.41968 16.9475 9.41968 16.0321V14.3769H11.0736ZM11.0736 13.5493C10.1589 13.5493 9.41968 12.8095 9.41968 11.894C9.41968 10.9786 10.1589 10.2388 11.0736 10.2388H15.221C16.1357 10.2388 16.8749 10.9786 16.8749 11.894C16.8749 12.8095 16.1357 13.5493 15.221 13.5493H11.0736Z" fill="#919191"/>
</svg>
