<svg width="17" height="14" viewBox="0 0 17 14" fill="none" xmlns="http://www.w3.org/2000/svg">
<path d="M17 1.66045C16.3794 1.93111 15.7128 2.114 15.0119 2.19667C15.7269 1.7753 16.2754 1.10666 16.534 0.310738C15.8651 0.701383 15.1242 0.985221 14.3357 1.13739C13.704 0.476068 12.8047 0.0620117 11.8088 0.0620117C9.89728 0.0620117 8.34697 1.58802 8.34697 3.47102C8.34697 3.73731 8.37819 3.99627 8.43615 4.24647C5.55776 4.10381 3.00786 2.74679 1.3 0.685284C1.00271 1.19006 0.831781 1.7753 0.831781 2.39857C0.831781 3.58075 1.44343 4.62467 2.37168 5.23552C1.80388 5.21723 1.27026 5.06434 0.803532 4.80903V4.85293C0.803532 6.50402 1.99637 7.88154 3.58086 8.19464C3.28952 8.27218 2.98408 8.31314 2.66896 8.31314C2.446 8.31314 2.22824 8.29266 2.01717 8.25316C2.45789 9.60656 3.73618 10.5926 5.25157 10.6189C4.06617 11.5335 2.57309 12.0784 0.951436 12.0784C0.671997 12.0784 0.396271 12.0623 0.125 12.0309C1.65747 12.9988 3.47681 13.5621 5.43141 13.5621C11.8006 13.5621 15.2825 8.36947 15.2825 3.86606C15.2825 3.71975 15.2787 3.57198 15.2721 3.42567C15.9483 2.94431 16.5355 2.34517 16.9985 1.66264L17 1.66045Z" fill="#919191"/>
</svg>
