<svg width="1440" height="953" viewBox="0 0 1440 953" fill="none" xmlns="http://www.w3.org/2000/svg">
<g filter="url(#filter0_f_173_16822)">
<path fill-rule="evenodd" clip-rule="evenodd" d="M873.453 822.739C793.354 823.656 709.093 816.979 654.224 758.617C594.353 694.936 575.42 605.081 587.422 518.503C601.058 420.138 629.302 304.887 722.045 269.387C811.648 235.088 893.513 321.612 976.639 369.519C1047.6 410.414 1133.26 440.606 1155.77 519.35C1179.33 601.742 1144.85 690.933 1086.47 753.666C1032.97 811.158 951.983 821.839 873.453 822.739Z" fill="#AF37EE"/>
</g>
<g filter="url(#filter1_f_173_16822)">
<path fill-rule="evenodd" clip-rule="evenodd" d="M848.839 680.215C788.495 692.912 716.154 734.441 668.243 695.617C618.67 655.447 663.326 569.41 639.203 510.341C616.671 455.167 532.479 429.031 535.057 369.489C537.582 311.212 613.096 287.509 650.783 242.987C689.067 197.758 704.97 131.935 758.19 105.88C814.054 78.5312 880.942 84.537 940.941 100.934C1001.65 117.525 1063.62 145.994 1097.96 198.735C1131.06 249.556 1120.96 315.007 1119.82 375.642C1118.85 427.523 1116.01 479.664 1091.81 525.564C1068.41 569.937 1028.73 601.733 986.411 628.669C944.245 655.508 897.751 669.923 848.839 680.215Z" fill="#1CCAD4" fill-opacity="0.66"/>
</g>
<g filter="url(#filter2_f_173_16822)">
<path d="M1112.03 387.152C1180.26 482.288 1158.36 614.602 1063.11 682.682L1014.14 717.69C918.893 785.77 786.37 763.837 718.14 668.7L683.793 620.809C615.562 525.672 637.461 393.358 732.705 325.278L781.681 290.27C876.925 222.19 1009.45 244.124 1077.68 339.26L1112.03 387.152Z" fill="url(#paint0_radial_173_16822)"/>
</g>
<g style="mix-blend-mode:overlay" filter="url(#filter3_f_173_16822)">
<path d="M705.2 364.814C751.233 269.401 866.487 229.53 961.96 275.438C1057.43 321.347 1098.05 436.171 1052.02 531.584C1005.99 626.997 890.732 666.868 795.259 620.959C699.786 575.051 659.167 460.227 705.2 364.814Z" fill="url(#paint1_radial_173_16822)"/>
</g>
<g filter="url(#filter4_f_173_16822)">
<path d="M933.208 504.783C967.888 432.9 1054.72 402.861 1126.65 437.448C1198.58 472.035 1229.18 558.542 1194.5 630.424C1159.82 702.307 1072.99 732.346 1001.06 697.759C929.129 663.172 898.527 576.666 933.208 504.783Z" fill="url(#paint2_radial_173_16822)"/>
</g>
<g filter="url(#filter5_f_173_16822)">
<path fill-rule="evenodd" clip-rule="evenodd" d="M435.605 -153.526C482.295 -156.239 524.055 -127.976 568.088 -112.211C614.882 -95.4573 1298.79 -196.932 1323 -153.526C1349.47 -106.075 1110.97 19.4365 1125.5 71.7921C1139.14 120.923 867.929 247.323 852.5 295.921C834.962 351.163 671.916 259.148 627.116 295.921C600.735 317.575 625.379 385.471 600 408.292C574.364 431.345 519.932 416.29 486.067 422.759C452.565 429.159 418.267 417.117 384.869 424.043C328.824 435.666 279.38 489.883 223.566 477.197C174.38 466.018 130.672 414.972 124.627 364.894C117.85 308.766 190.084 267.535 191.431 211.015C192.542 164.411 135.714 132.868 131.263 86.4646C126.493 36.7396 130.836 -21.8942 165.655 -57.7124C200.765 -93.8297 262.336 -80.3513 309.805 -97.1996C353.581 -112.737 389.231 -150.831 435.605 -153.526Z" fill="url(#paint3_linear_173_16822)"/>
</g>
<g filter="url(#filter6_f_173_16822)">
<path fill-rule="evenodd" clip-rule="evenodd" d="M606.786 -222.705C520.837 -230.691 276.887 -262.162 208.725 -209.201C133.839 -151.016 227.471 -32.3997 241.065 61.4549C253.91 150.143 356.736 184.901 422.89 245.351C483.644 300.865 524.831 53.9566 606.786 61.4549C692.459 69.2933 674.138 66.9553 732.771 3.99982C789.14 -56.5238 885.998 34.6446 882.771 -48.0002C879.653 -127.851 958.736 -168.825 899.721 -222.705C843.582 -273.959 682.477 -215.672 606.786 -222.705Z" fill="#E95D6F" fill-opacity="0.2"/>
</g>
<g filter="url(#filter7_d_173_16822)">
<path d="M-516 -61.0685L173.932 -701L863.863 -61.0685L173.932 578.863L-516 -61.0685Z" fill="url(#paint4_linear_173_16822)" fill-opacity="0.1" shape-rendering="crispEdges"/>
</g>
<g filter="url(#filter8_d_173_16822)">
<path d="M-926 -61.0685L-236.068 -701L453.863 -61.0685L-236.068 578.863L-926 -61.0685Z" fill="url(#paint5_linear_173_16822)" fill-opacity="0.1" shape-rendering="crispEdges"/>
</g>
<g filter="url(#filter9_d_173_16822)">
<path d="M590 1094.93L1279.93 455L1969.86 1094.93L1279.93 1734.86L590 1094.93Z" fill="white" fill-opacity="0.1" shape-rendering="crispEdges"/>
</g>
<g filter="url(#filter10_d_173_16822)">
<path d="M702 1286.93L1391.93 647L2081.86 1286.93L1391.93 1926.86L702 1286.93Z" fill="white" fill-opacity="0.1" shape-rendering="crispEdges"/>
</g>
<defs>
<filter id="filter0_f_173_16822" x="284" y="-38.4512" width="1179.26" height="1161.27" filterUnits="userSpaceOnUse" color-interpolation-filters="sRGB">
<feFlood flood-opacity="0" result="BackgroundImageFix"/>
<feBlend mode="normal" in="SourceGraphic" in2="BackgroundImageFix" result="shape"/>
<feGaussianBlur stdDeviation="150" result="effect1_foregroundBlur_173_16822"/>
</filter>
<filter id="filter1_f_173_16822" x="335" y="-113" width="987.153" height="1024.81" filterUnits="userSpaceOnUse" color-interpolation-filters="sRGB">
<feFlood flood-opacity="0" result="BackgroundImageFix"/>
<feBlend mode="normal" in="SourceGraphic" in2="BackgroundImageFix" result="shape"/>
<feGaussianBlur stdDeviation="100" result="effect1_foregroundBlur_173_16822"/>
</filter>
<filter id="filter2_f_173_16822" x="535.802" y="142.402" width="724.214" height="723.157" filterUnits="userSpaceOnUse" color-interpolation-filters="sRGB">
<feFlood flood-opacity="0" result="BackgroundImageFix"/>
<feBlend mode="normal" in="SourceGraphic" in2="BackgroundImageFix" result="shape"/>
<feGaussianBlur stdDeviation="54.1446" result="effect1_foregroundBlur_173_16822"/>
</filter>
<filter id="filter3_f_173_16822" x="580.224" y="150.395" width="596.772" height="595.607" filterUnits="userSpaceOnUse" color-interpolation-filters="sRGB">
<feFlood flood-opacity="0" result="BackgroundImageFix"/>
<feBlend mode="normal" in="SourceGraphic" in2="BackgroundImageFix" result="shape"/>
<feGaussianBlur stdDeviation="52.9955" result="effect1_foregroundBlur_173_16822"/>
</filter>
<filter id="filter4_f_173_16822" x="592.382" y="96.5722" width="942.94" height="942.063" filterUnits="userSpaceOnUse" color-interpolation-filters="sRGB">
<feFlood flood-opacity="0" result="BackgroundImageFix"/>
<feBlend mode="normal" in="SourceGraphic" in2="BackgroundImageFix" result="shape"/>
<feGaussianBlur stdDeviation="163.261" result="effect1_foregroundBlur_173_16822"/>
</filter>
<filter id="filter5_f_173_16822" x="-175.822" y="-464.417" width="1800.87" height="1243.52" filterUnits="userSpaceOnUse" color-interpolation-filters="sRGB">
<feFlood flood-opacity="0" result="BackgroundImageFix"/>
<feBlend mode="normal" in="SourceGraphic" in2="BackgroundImageFix" result="shape"/>
<feGaussianBlur stdDeviation="150" result="effect1_foregroundBlur_173_16822"/>
</filter>
<filter id="filter6_f_173_16822" x="-20" y="-444" width="1141.66" height="897.49" filterUnits="userSpaceOnUse" color-interpolation-filters="sRGB">
<feFlood flood-opacity="0" result="BackgroundImageFix"/>
<feBlend mode="normal" in="SourceGraphic" in2="BackgroundImageFix" result="shape"/>
<feGaussianBlur stdDeviation="100" result="effect1_foregroundBlur_173_16822"/>
</filter>
<filter id="filter7_d_173_16822" x="-616" y="-771" width="1579.86" height="1479.86" filterUnits="userSpaceOnUse" color-interpolation-filters="sRGB">
<feFlood flood-opacity="0" result="BackgroundImageFix"/>
<feColorMatrix in="SourceAlpha" type="matrix" values="0 0 0 0 0 0 0 0 0 0 0 0 0 0 0 0 0 0 127 0" result="hardAlpha"/>
<feOffset dy="30"/>
<feGaussianBlur stdDeviation="50"/>
<feComposite in2="hardAlpha" operator="out"/>
<feColorMatrix type="matrix" values="0 0 0 0 0 0 0 0 0 0 0 0 0 0 0 0 0 0 0.25 0"/>
<feBlend mode="normal" in2="BackgroundImageFix" result="effect1_dropShadow_173_16822"/>
<feBlend mode="normal" in="SourceGraphic" in2="effect1_dropShadow_173_16822" result="shape"/>
</filter>
<filter id="filter8_d_173_16822" x="-1026" y="-771" width="1579.86" height="1479.86" filterUnits="userSpaceOnUse" color-interpolation-filters="sRGB">
<feFlood flood-opacity="0" result="BackgroundImageFix"/>
<feColorMatrix in="SourceAlpha" type="matrix" values="0 0 0 0 0 0 0 0 0 0 0 0 0 0 0 0 0 0 127 0" result="hardAlpha"/>
<feOffset dy="30"/>
<feGaussianBlur stdDeviation="50"/>
<feComposite in2="hardAlpha" operator="out"/>
<feColorMatrix type="matrix" values="0 0 0 0 0 0 0 0 0 0 0 0 0 0 0 0 0 0 0.25 0"/>
<feBlend mode="normal" in2="BackgroundImageFix" result="effect1_dropShadow_173_16822"/>
<feBlend mode="normal" in="SourceGraphic" in2="effect1_dropShadow_173_16822" result="shape"/>
</filter>
<filter id="filter9_d_173_16822" x="490" y="385" width="1579.86" height="1479.86" filterUnits="userSpaceOnUse" color-interpolation-filters="sRGB">
<feFlood flood-opacity="0" result="BackgroundImageFix"/>
<feColorMatrix in="SourceAlpha" type="matrix" values="0 0 0 0 0 0 0 0 0 0 0 0 0 0 0 0 0 0 127 0" result="hardAlpha"/>
<feOffset dy="30"/>
<feGaussianBlur stdDeviation="50"/>
<feComposite in2="hardAlpha" operator="out"/>
<feColorMatrix type="matrix" values="0 0 0 0 0 0 0 0 0 0 0 0 0 0 0 0 0 0 0.25 0"/>
<feBlend mode="normal" in2="BackgroundImageFix" result="effect1_dropShadow_173_16822"/>
<feBlend mode="normal" in="SourceGraphic" in2="effect1_dropShadow_173_16822" result="shape"/>
</filter>
<filter id="filter10_d_173_16822" x="602" y="577" width="1579.86" height="1479.86" filterUnits="userSpaceOnUse" color-interpolation-filters="sRGB">
<feFlood flood-opacity="0" result="BackgroundImageFix"/>
<feColorMatrix in="SourceAlpha" type="matrix" values="0 0 0 0 0 0 0 0 0 0 0 0 0 0 0 0 0 0 127 0" result="hardAlpha"/>
<feOffset dy="30"/>
<feGaussianBlur stdDeviation="50"/>
<feComposite in2="hardAlpha" operator="out"/>
<feColorMatrix type="matrix" values="0 0 0 0 0 0 0 0 0 0 0 0 0 0 0 0 0 0 0.25 0"/>
<feBlend mode="normal" in2="BackgroundImageFix" result="effect1_dropShadow_173_16822"/>
<feBlend mode="normal" in="SourceGraphic" in2="effect1_dropShadow_173_16822" result="shape"/>
</filter>
<radialGradient id="paint0_radial_173_16822" cx="0" cy="0" r="1" gradientUnits="userSpaceOnUse" gradientTransform="translate(976.693 540.7) rotate(-133.3) scale(320.054 320.753)">
<stop stop-color="#FFD84B"/>
<stop offset="1" stop-color="#FFD84B" stop-opacity="0"/>
</radialGradient>
<radialGradient id="paint1_radial_173_16822" cx="0" cy="0" r="1" gradientUnits="userSpaceOnUse" gradientTransform="translate(798.195 439.373) rotate(90.9263) scale(181.61 182.292)">
<stop stop-color="#9207FF"/>
<stop offset="1" stop-color="#FF9898"/>
</radialGradient>
<radialGradient id="paint2_radial_173_16822" cx="0" cy="0" r="1" gradientUnits="userSpaceOnUse" gradientTransform="translate(1007.49 537.458) rotate(115.156) scale(629.162 631.145)">
<stop stop-color="#5AE9FD"/>
<stop offset="1" stop-color="#5AE9FD" stop-opacity="0"/>
</radialGradient>
<linearGradient id="paint3_linear_173_16822" x1="670.437" y1="-164" x2="683.5" y2="315.5" gradientUnits="userSpaceOnUse">
<stop stop-color="#AF37EE"/>
<stop offset="1" stop-color="#253087"/>
</linearGradient>
<linearGradient id="paint4_linear_173_16822" x1="370" y1="223" x2="152" y2="446.5" gradientUnits="userSpaceOnUse">
<stop stop-color="white"/>
<stop offset="1" stop-color="white" stop-opacity="0"/>
</linearGradient>
<linearGradient id="paint5_linear_173_16822" x1="275.5" y1="7.99971" x2="-214" y2="453" gradientUnits="userSpaceOnUse">
<stop stop-color="white"/>
<stop offset="0.453504" stop-color="white" stop-opacity="0"/>
</linearGradient>
</defs>
</svg>
